<mxfile host="app.diagrams.net" modified="2023-07-14T01:46:17.110Z" agent="Mozilla/5.0 (Windows NT 10.0; Win64; x64) AppleWebKit/537.36 (KHTML, like Gecko) Chrome/113.0.0.0 Safari/537.36" etag="tFZ_-ONgf8-XPTphdqbH" version="21.6.2" type="github">
  <diagram name="第 1 页" id="STTnDnIgFNVwlUoMGsSl">
    <mxGraphModel dx="1674" dy="764" grid="1" gridSize="10" guides="1" tooltips="1" connect="1" arrows="1" fold="1" page="1" pageScale="1" pageWidth="4681" pageHeight="3300" math="0" shadow="0">
      <root>
        <mxCell id="0" />
        <mxCell id="1" parent="0" />
        <mxCell id="AIqvYYFXmySqtJn84Ffb-1" value="&lt;p style=&quot;margin:0px;margin-top:4px;text-align:center;&quot;&gt;&lt;i&gt;&amp;lt;&amp;lt;Interface&amp;gt;&amp;gt;&lt;/i&gt;&lt;br&gt;&lt;/p&gt;&lt;div style=&quot;text-align: center;&quot;&gt;&lt;b&gt;z_activity_behaviour&lt;/b&gt;&lt;/div&gt;&lt;hr size=&quot;1&quot;&gt;&lt;p style=&quot;margin:0px;margin-left:4px;&quot;&gt;+ field1: Type&lt;br&gt;+ field2: Type&lt;/p&gt;&lt;hr size=&quot;1&quot;&gt;&lt;p style=&quot;margin:0px;margin-left:4px;&quot;&gt;+ method1(Type): Type&lt;br&gt;+ method2(Type, Type): Type&lt;/p&gt;" style="verticalAlign=top;align=left;overflow=fill;fontSize=12;fontFamily=Helvetica;html=1;whiteSpace=wrap;" vertex="1" parent="1">
          <mxGeometry x="90" y="300" width="190" height="140" as="geometry" />
        </mxCell>
        <mxCell id="AIqvYYFXmySqtJn84Ffb-2" value="activity_port" style="swimlane;fontStyle=0;childLayout=stackLayout;horizontal=1;startSize=26;fillColor=none;horizontalStack=0;resizeParent=1;resizeParentMax=0;resizeLast=0;collapsible=1;marginBottom=0;whiteSpace=wrap;html=1;" vertex="1" parent="1">
          <mxGeometry x="520" y="110" width="170" height="90" as="geometry" />
        </mxCell>
        <mxCell id="AIqvYYFXmySqtJn84Ffb-3" value="get_short_infos/5, get_activity_by_id/5, get_award/5" style="text;strokeColor=none;fillColor=none;align=left;verticalAlign=top;spacingLeft=4;spacingRight=4;overflow=hidden;rotatable=0;points=[[0,0.5],[1,0.5]];portConstraint=eastwest;whiteSpace=wrap;html=1;" vertex="1" parent="AIqvYYFXmySqtJn84Ffb-2">
          <mxGeometry y="26" width="170" height="64" as="geometry" />
        </mxCell>
        <mxCell id="AIqvYYFXmySqtJn84Ffb-6" value="z_activity_manager" style="swimlane;fontStyle=0;childLayout=stackLayout;horizontal=1;startSize=26;fillColor=none;horizontalStack=0;resizeParent=1;resizeParentMax=0;resizeLast=0;collapsible=1;marginBottom=0;whiteSpace=wrap;html=1;" vertex="1" parent="1">
          <mxGeometry x="530" y="270" width="140" height="100" as="geometry" />
        </mxCell>
        <mxCell id="AIqvYYFXmySqtJn84Ffb-7" value="&lt;div&gt;get_short_infos/3, get_activity_by_id/4, get_award/5&lt;/div&gt;&lt;div&gt;&lt;span style=&quot;background-color: initial;&quot;&gt;format_short/4&lt;/span&gt;&lt;/div&gt;" style="text;strokeColor=none;fillColor=none;align=left;verticalAlign=top;spacingLeft=4;spacingRight=4;overflow=hidden;rotatable=0;points=[[0,0.5],[1,0.5]];portConstraint=eastwest;whiteSpace=wrap;html=1;" vertex="1" parent="AIqvYYFXmySqtJn84Ffb-6">
          <mxGeometry y="26" width="140" height="74" as="geometry" />
        </mxCell>
        <mxCell id="AIqvYYFXmySqtJn84Ffb-10" value="z_activity_controller" style="swimlane;fontStyle=0;childLayout=stackLayout;horizontal=1;startSize=26;fillColor=none;horizontalStack=0;resizeParent=1;resizeParentMax=0;resizeLast=0;collapsible=1;marginBottom=0;whiteSpace=wrap;html=1;" vertex="1" parent="1">
          <mxGeometry x="150" y="610" width="140" height="100" as="geometry" />
        </mxCell>
        <mxCell id="AIqvYYFXmySqtJn84Ffb-11" value="&lt;div&gt;get_short_infos/3, get_activity_by_id/4, get_award/5&lt;/div&gt;&lt;div&gt;&lt;span style=&quot;background-color: initial;&quot;&gt;format_short/4&lt;/span&gt;&lt;/div&gt;" style="text;strokeColor=none;fillColor=none;align=left;verticalAlign=top;spacingLeft=4;spacingRight=4;overflow=hidden;rotatable=0;points=[[0,0.5],[1,0.5]];portConstraint=eastwest;whiteSpace=wrap;html=1;" vertex="1" parent="AIqvYYFXmySqtJn84Ffb-10">
          <mxGeometry y="26" width="140" height="74" as="geometry" />
        </mxCell>
        <mxCell id="AIqvYYFXmySqtJn84Ffb-12" value="z_activity_db" style="swimlane;fontStyle=0;childLayout=stackLayout;horizontal=1;startSize=26;fillColor=none;horizontalStack=0;resizeParent=1;resizeParentMax=0;resizeLast=0;collapsible=1;marginBottom=0;whiteSpace=wrap;html=1;" vertex="1" parent="1">
          <mxGeometry x="450" y="636" width="140" height="100" as="geometry" />
        </mxCell>
        <mxCell id="AIqvYYFXmySqtJn84Ffb-13" value="&lt;div&gt;get_short_infos/3, get_activity_by_id/4, get_award/5&lt;/div&gt;&lt;div&gt;&lt;span style=&quot;background-color: initial;&quot;&gt;format_short/4&lt;/span&gt;&lt;/div&gt;" style="text;strokeColor=none;fillColor=none;align=left;verticalAlign=top;spacingLeft=4;spacingRight=4;overflow=hidden;rotatable=0;points=[[0,0.5],[1,0.5]];portConstraint=eastwest;whiteSpace=wrap;html=1;" vertex="1" parent="AIqvYYFXmySqtJn84Ffb-12">
          <mxGeometry y="26" width="140" height="74" as="geometry" />
        </mxCell>
        <mxCell id="AIqvYYFXmySqtJn84Ffb-14" value="z_activity_event" style="swimlane;fontStyle=0;childLayout=stackLayout;horizontal=1;startSize=26;fillColor=none;horizontalStack=0;resizeParent=1;resizeParentMax=0;resizeLast=0;collapsible=1;marginBottom=0;whiteSpace=wrap;html=1;" vertex="1" parent="1">
          <mxGeometry x="920" y="350" width="140" height="104" as="geometry" />
        </mxCell>
        <mxCell id="AIqvYYFXmySqtJn84Ffb-15" value="+ field: type" style="text;strokeColor=none;fillColor=none;align=left;verticalAlign=top;spacingLeft=4;spacingRight=4;overflow=hidden;rotatable=0;points=[[0,0.5],[1,0.5]];portConstraint=eastwest;whiteSpace=wrap;html=1;" vertex="1" parent="AIqvYYFXmySqtJn84Ffb-14">
          <mxGeometry y="26" width="140" height="26" as="geometry" />
        </mxCell>
        <mxCell id="AIqvYYFXmySqtJn84Ffb-16" value="+ field: type" style="text;strokeColor=none;fillColor=none;align=left;verticalAlign=top;spacingLeft=4;spacingRight=4;overflow=hidden;rotatable=0;points=[[0,0.5],[1,0.5]];portConstraint=eastwest;whiteSpace=wrap;html=1;" vertex="1" parent="AIqvYYFXmySqtJn84Ffb-14">
          <mxGeometry y="52" width="140" height="26" as="geometry" />
        </mxCell>
        <mxCell id="AIqvYYFXmySqtJn84Ffb-17" value="+ field: type" style="text;strokeColor=none;fillColor=none;align=left;verticalAlign=top;spacingLeft=4;spacingRight=4;overflow=hidden;rotatable=0;points=[[0,0.5],[1,0.5]];portConstraint=eastwest;whiteSpace=wrap;html=1;" vertex="1" parent="AIqvYYFXmySqtJn84Ffb-14">
          <mxGeometry y="78" width="140" height="26" as="geometry" />
        </mxCell>
      </root>
    </mxGraphModel>
  </diagram>
</mxfile>
